            <svg version="1.1" id="Calque_1" xmlns="http://www.w3.org/2000/svg" xmlns:xlink="http://www.w3.org/1999/xlink" x="0px" y="0px"
            viewBox="0 0 802.46 626.968" enable-background="new 0 0 802.46 626.968"
            xml:space="preserve">
                <g>
                    <path fill-rule="evenodd" clip-rule="evenodd" fill="none" stroke="#000000" stroke-width="3" stroke-miterlimit="10" d="
                        M36.342,81.217c20.601,0,40.26,0,59.919,0c16.901,0,33.802,0.065,50.702-0.082c2.15-0.019,4.59-0.675,6.394-1.825
                        c43.31-27.607,90.455-45.572,140.579-56.032c46.722-9.75,93.924-12.509,141.515-9.432c64.354,4.162,125.391,20.191,182.335,50.864
                        c8.218,4.427,16.219,9.255,24.44,13.676c2.04,1.098,4.543,1.874,6.836,1.881c37.335,0.118,74.671,0.088,112.006,0.092
                        c1.631,0,3.261,0,5.686,0c-2.786,4.228-5.165,7.723-7.43,11.291c-11.63,18.324-21.832,37.336-27.257,58.528
                        c-0.477,1.86,0.027,4.576,1.135,6.149c24.059,34.2,35.313,72.236,33.771,113.915c-2.871,77.616-56.91,147.434-132.052,167.398
                        c-76.026,20.2-140.785-0.265-192.975-59.468c-0.406-0.46-0.762-0.967-1.188-1.406c-0.198-0.205-0.509-0.3-1.304-0.744
                        c-12.833,19.13-25.692,38.299-38.94,58.05c-13.035-19.457-25.793-38.498-38.783-57.887c-3.584,3.966-6.756,7.68-10.141,11.188
                        c-29.931,31.008-66.123,49.67-108.948,55.404C149.523,455.244,60.61,393.16,40.764,301.38
                        c-11.299-52.254-1.283-100.474,29.008-144.458c1.8-2.614,1.889-4.862,1.088-7.589C64.134,126.426,52.864,105.77,39.6,86.098
                        C38.679,84.732,37.771,83.359,36.342,81.217z M720.273,262.368c0.218-80.615-64.917-145.588-146.349-145.987
                        c-80.413-0.394-145.798,64.786-146.131,145.672c-0.331,80.293,65.081,146.486,145.606,146.178
                        C661.249,407.896,720.388,337.719,720.273,262.368z M73.246,261.883c0.26,80.394,66.063,145.941,146.241,145.676
                        c80.155-0.266,145.642-65.892,145.588-145.898c-0.055-80.406-65.636-145.873-146.027-145.773
                        C138.555,115.989,72.987,181.644,73.246,261.883z M572.521,78.53c-42.346-19.5-117.944-40.59-221.475-31.024
                        c-42.794,3.955-84.251,13.813-123.911,30.852c44.56,2.836,83.479,18.791,116.191,49.096
                        c32.693,30.288,51.544,67.905,57.441,111.066C419.79,144.491,477.036,91.108,572.521,78.53z"/>
                    <path fill-rule="evenodd" clip-rule="evenodd" fill="none" stroke="#000000" stroke-width="3" stroke-miterlimit="10" d="
                        M674.039,260.231c-0.032,49.98-40.824,90.259-91.293,90.144c-49.528-0.113-90.239-40.981-90.119-90.469
                        c0.105-44.079,42.255-90.165,90.454-90.098C633.646,169.879,674.072,210.067,674.039,260.231z M642.877,259.948
                        c0.363-34.236-28.849-58.931-59.797-58.938c-32.727-0.008-59.282,26.383-59.306,58.969c-0.024,32.797,26.644,59.359,59.572,59.188
                        C614.512,319.005,643.325,294.089,642.877,259.948z"/>
                    <path fill-rule="evenodd" clip-rule="evenodd" fill="none" stroke="#000000" stroke-width="3" stroke-miterlimit="10" d="
                        M217.058,169.809c35.433,0.06,90.112,29.718,90.008,90.485c-0.085,49.605-40.857,90.204-90.463,90.079
                        c-49.525-0.125-90.214-41.013-90.089-90.529C126.64,210.277,167.422,169.725,217.058,169.809z M217.03,201.014
                        c-32.79-0.035-59.283,26.243-59.327,58.844c-0.043,32.721,26.276,59.237,58.888,59.327c32.746,0.09,59.193-26.189,59.264-58.886
                        C275.925,227.458,249.721,201.049,217.03,201.014z"/>
                    <path fill-rule="evenodd" clip-rule="evenodd" fill="none" stroke="#000000" stroke-width="3" stroke-miterlimit="10" d="
                        M245.138,291.692c-16.433-0.434-29.837-13.974-29.199-29.954c0.723-18.104,14.099-29.502,30.22-29.553
                        c16.378-0.052,30.114,14.536,29.495,30.341C274.996,279.333,261.609,292.127,245.138,291.692z"/>
                    <path fill-rule="evenodd" clip-rule="evenodd" fill="none" stroke="#000000" stroke-width="3" stroke-miterlimit="10" d="
                        M553.138,291.692c-16.433-0.434-29.837-13.974-29.199-29.953c0.723-18.104,14.099-29.503,30.22-29.554
                        c16.379-0.052,30.114,14.536,29.496,30.341C582.996,279.333,569.609,292.127,553.138,291.692z"/>
                    <rect x="2.391" y="478.386" fill-rule="evenodd" clip-rule="evenodd" fill="none" width="796" height="180"/>
                    <path fill="none" stroke="#000000" stroke-width="3" stroke-miterlimit="10" d="M55.266,584.101
                        c-3.282,1.733-8.227,2.602-14.836,2.602c-15.657,0-23.484-8.132-23.484-24.398v-32.977H5.273v-16.383h11.672v-15.539l22.148-6.328
                        v21.867h16.172v16.383H39.094v29.109c0,7.5,2.976,11.25,8.93,11.25c2.343,0,4.757-0.679,7.242-2.039V584.101z"/>
                    <path fill="none" stroke="#000000" stroke-width="3" stroke-miterlimit="10" d="M114.75,532.984
                        c-2.672-1.452-5.79-2.18-9.352-2.18c-4.829,0-8.603,1.77-11.32,5.309c-2.719,3.54-4.078,8.356-4.078,14.449v34.383H67.781v-72H90
                        v13.359h0.281c3.516-9.749,9.844-14.625,18.984-14.625c2.343,0,4.171,0.281,5.484,0.844V532.984z"/>
                    <path fill="none" stroke="#000000" stroke-width="3" stroke-miterlimit="10" d="M159.398,586.703c-12,0-21.435-3.363-28.301-10.09
                        c-6.868-6.726-10.301-15.855-10.301-27.387c0-11.906,3.562-21.223,10.688-27.949c7.125-6.726,16.757-10.09,28.898-10.09
                        c11.953,0,21.328,3.364,28.125,10.09c6.796,6.727,10.195,15.621,10.195,26.684c0,11.953-3.505,21.399-10.512,28.336
                        C181.183,583.234,171.585,586.703,159.398,586.703z M159.961,528.203c-5.25,0-9.329,1.805-12.234,5.414
                        c-2.907,3.61-4.359,8.719-4.359,15.328c0,13.828,5.578,20.742,16.734,20.742c10.64,0,15.961-7.102,15.961-21.305
                        C176.063,534.929,170.694,528.203,159.961,528.203z"/>
                    <path fill="none" stroke="#000000" stroke-width="3" stroke-miterlimit="10" d="M235.617,576.578h-0.281v41.484h-22.219V512.945
                        h22.219v10.828h0.281c5.484-8.391,13.194-12.586,23.133-12.586c9.327,0,16.534,3.199,21.621,9.598
                        c5.085,6.398,7.629,15.106,7.629,26.121c0,12-2.965,21.633-8.895,28.898c-5.931,7.267-13.816,10.898-23.66,10.898
                        C246.772,586.703,240.163,583.328,235.617,576.578z M234.984,547.046v5.766c0,4.969,1.312,9.024,3.938,12.164
                        c2.625,3.141,6.07,4.711,10.336,4.711c5.063,0,8.988-1.957,11.777-5.871c2.788-3.913,4.184-9.457,4.184-16.629
                        c0-12.656-4.922-18.984-14.766-18.984c-4.547,0-8.262,1.723-11.145,5.168S234.984,541.375,234.984,547.046z"/>
                    <path fill="none" stroke="#000000" stroke-width="3" stroke-miterlimit="10" d="M336.727,586.703c-12,0-21.435-3.363-28.301-10.09
                        c-6.868-6.726-10.301-15.855-10.301-27.387c0-11.906,3.562-21.223,10.688-27.949c7.125-6.726,16.757-10.09,28.898-10.09
                        c11.953,0,21.328,3.364,28.125,10.09c6.796,6.727,10.195,15.621,10.195,26.684c0,11.953-3.505,21.399-10.512,28.336
                        C358.511,583.234,348.914,586.703,336.727,586.703z M337.289,528.203c-5.25,0-9.329,1.805-12.234,5.414
                        c-2.907,3.61-4.359,8.719-4.359,15.328c0,13.828,5.578,20.742,16.734,20.742c10.64,0,15.961-7.102,15.961-21.305
                        C353.391,534.929,348.022,528.203,337.289,528.203z"/>
                    <path fill="none" stroke="#000000" stroke-width="3" stroke-miterlimit="10" d="M460.898,584.945H438.68v-9.914h-0.281
                        c-5.063,7.781-12.492,11.672-22.289,11.672c-9,0-16.242-3.175-21.727-9.527c-5.484-6.352-8.227-15.223-8.227-26.613
                        c0-11.906,3.023-21.445,9.07-28.617s13.968-10.758,23.766-10.758c9.281,0,15.75,3.329,19.406,9.984h0.281v-42.82h22.219V584.945z
                            M439.102,549.929v-5.414c0-4.687-1.36-8.578-4.078-11.672c-2.719-3.094-6.258-4.641-10.617-4.641
                        c-4.922,0-8.766,1.934-11.531,5.801c-2.767,3.867-4.148,9.176-4.148,15.926c0,6.328,1.336,11.204,4.008,14.625
                        c2.672,3.422,6.374,5.133,11.109,5.133c4.5,0,8.167-1.804,11.004-5.414C437.684,560.664,439.102,555.882,439.102,549.929z"/>
                    <path fill="none" stroke="#000000" stroke-width="3" stroke-miterlimit="10" d="M548.156,512.945l-26.789,72h-25.313l-25.523-72
                        h23.766l12.516,44.367c1.406,5.017,2.226,9.281,2.461,12.797h0.281c0.327-3.328,1.195-7.453,2.602-12.375l12.797-44.789H548.156z"
                        />
                    <path fill="none" stroke="#000000" stroke-width="3" stroke-miterlimit="10" d="M568.898,501.554c-3.751,0-6.82-1.113-9.211-3.34
                        c-2.391-2.226-3.586-4.957-3.586-8.191c0-3.328,1.195-6.047,3.586-8.156s5.46-3.164,9.211-3.164c3.797,0,6.879,1.055,9.246,3.164
                        c2.366,2.109,3.551,4.828,3.551,8.156c0,3.375-1.185,6.142-3.551,8.297C575.777,500.476,572.695,501.554,568.898,501.554z
                            M579.867,584.945h-22.219v-72h22.219V584.945z"/>
                    <path fill="none" stroke="#000000" stroke-width="3" stroke-miterlimit="10" d="M593.859,583.046v-18
                        c3.656,2.204,7.301,3.844,10.934,4.922c3.632,1.079,7.066,1.617,10.301,1.617c3.938,0,7.042-0.538,9.316-1.617
                        c2.273-1.078,3.41-2.718,3.41-4.922c0-1.406-0.517-2.577-1.547-3.516c-1.031-0.938-2.355-1.758-3.973-2.461
                        s-3.387-1.336-5.309-1.898c-1.923-0.563-3.773-1.195-5.555-1.898c-2.859-1.078-5.379-2.238-7.559-3.48
                        c-2.18-1.241-4.008-2.683-5.484-4.324c-1.477-1.641-2.602-3.539-3.375-5.695c-0.773-2.155-1.16-4.711-1.16-7.664
                        c0-4.031,0.879-7.499,2.637-10.406c1.758-2.906,4.102-5.284,7.031-7.137c2.929-1.852,6.281-3.21,10.055-4.078
                        c3.772-0.867,7.699-1.301,11.777-1.301c3.188,0,6.422,0.246,9.703,0.738c3.28,0.492,6.515,1.207,9.703,2.145v17.156
                        c-2.813-1.641-5.825-2.871-9.035-3.691c-3.211-0.819-6.363-1.23-9.457-1.23c-1.453,0-2.824,0.13-4.113,0.387
                        c-1.29,0.258-2.426,0.633-3.41,1.125s-1.758,1.125-2.32,1.898s-0.844,1.652-0.844,2.637c0,1.313,0.422,2.438,1.266,3.375
                        c0.844,0.938,1.944,1.747,3.305,2.426c1.359,0.68,2.871,1.29,4.535,1.828c1.663,0.539,3.315,1.09,4.957,1.652
                        c2.953,1.031,5.625,2.156,8.016,3.375c2.391,1.22,4.44,2.648,6.152,4.289c1.711,1.642,3.023,3.563,3.938,5.766
                        c0.914,2.204,1.371,4.828,1.371,7.875c0,4.266-0.926,7.91-2.777,10.934c-1.853,3.023-4.313,5.484-7.383,7.383
                        c-3.07,1.898-6.609,3.281-10.617,4.148s-8.168,1.301-12.48,1.301C607.945,586.703,600.609,585.483,593.859,583.046z"/>
                    <path fill="none" stroke="#000000" stroke-width="3" stroke-miterlimit="10" d="M696.234,586.703c-12,0-21.435-3.363-28.301-10.09
                        c-6.867-6.726-10.301-15.855-10.301-27.387c0-11.906,3.562-21.223,10.688-27.949c7.125-6.726,16.758-10.09,28.898-10.09
                        c11.953,0,21.328,3.364,28.125,10.09c6.796,6.727,10.195,15.621,10.195,26.684c0,11.953-3.505,21.399-10.512,28.336
                        C718.02,583.234,708.422,586.703,696.234,586.703z M696.797,528.203c-5.25,0-9.328,1.805-12.234,5.414
                        c-2.907,3.61-4.359,8.719-4.359,15.328c0,13.828,5.578,20.742,16.734,20.742c10.641,0,15.961-7.102,15.961-21.305
                        C712.898,534.929,707.53,528.203,696.797,528.203z"/>
                    <path fill="none" stroke="#000000" stroke-width="3" stroke-miterlimit="10" d="M796.922,532.984
                        c-2.672-1.452-5.79-2.18-9.352-2.18c-4.828,0-8.603,1.77-11.32,5.309c-2.719,3.54-4.078,8.356-4.078,14.449v34.383h-22.219v-72
                        h22.219v13.359h0.281c3.516-9.749,9.844-14.625,18.984-14.625c2.344,0,4.172,0.281,5.484,0.844V532.984z"/>
                </g>
            </svg>